PathFileType	4	(X/Y/Z)	G:\TennisProject\Miami_Dimitrov_Sinner_masked_Sports2D\Miami_Dimitrov_Sinner_masked_Sports2D_px_person00.trc
DataRate	CameraRate	NumFrames	NumMarkers	Units	OrigDataRate	OrigDataStartFrame	OrigNumFrames
25	25	4	22	m	25	249	499
Frame#	Time	Hip			RHip			RKnee			RAnkle			RBigToe			RSmallToe			RHeel			LHip			LKnee			LAnkle			LBigToe			LSmallToe			LHeel			Neck			Head			Nose			RShoulder			RElbow			RWrist			LShoulder			LElbow			LWrist		
		X1	Y1	Z1	X2	Y2	Z2	X3	Y3	Z3	X4	Y4	Z4	X5	Y5	Z5	X6	Y6	Z6	X7	Y7	Z7	X8	Y8	Z8	X9	Y9	Z9	X10	Y10	Z10	X11	Y11	Z11	X12	Y12	Z12	X13	Y13	Z13	X14	Y14	Z14	X15	Y15	Z15	X16	Y16	Z16	X17	Y17	Z17	X18	Y18	Z18	X19	Y19	Z19	X20	Y20	Z20	X21	Y21	Z21	X22	Y22	Z22
249	9.96	975.5451477537745	230.81971310459227	0.0	967.8177294760847	232.3016767660133	0.0	956.6460079789833	253.65584204811364	0.0	945.5396365487691	275.79839450697955	0.0	942.5592734530927	284.5145124486328	0.0	939.4758714757763	282.71930840966024	0.0	945.1082233348632	279.3992209023347	0.0	982.8892844173959	232.2315051174768	0.0	990.2793286538889	254.11687960418487	0.0	996.8504060540675	276.3624889496721	0.0	1000.3248932535711	283.91187957193677	0.0	1003.4646524799932	282.72417221087045	0.0	996.5275474950454	280.00708437747943	0.0	976.7112567931711	197.70504831360273	0.0	976.844043763867	184.01393484283193	0.0	976.8256841446722	191.26391069821048	0.0	965.8807956927203	201.97298521105222	0.0	959.8255435289608	215.45992354941455	0.0	965.5291723844402	225.38331906809526	0.0	987.0023234727973	201.18523927945583	0.0	989.9158836042839	217.52833206373896	0.0	978.3932288306105	225.69140030068553	0.0
250	10.0	976.6334420845207	227.35906366531765	0.0	968.7086326215813	228.48944257719288	0.0	957.4507935533035	250.5031252360813	0.0	946.8593585732517	273.5820522830511	0.0	944.3237843486004	282.056484973715	0.0	940.9768159364544	279.86889986269927	0.0	946.499643237802	277.13931149844404	0.0	984.2236652882484	228.4530251327097	0.0	991.516958641052	251.75858801545917	0.0	997.6987593509992	275.31589736121407	0.0	999.9556538636971	283.9717445368814	0.0	1003.7919129959939	282.7607951410804	0.0	997.3985262702417	279.4176642745532	0.0	977.3766067825345	194.29327248167792	0.0	977.5562154871445	179.24275622982037	0.0	977.4261096510008	187.2377543002476	0.0	966.4585693689896	199.00385878113866	0.0	960.2490773470897	211.79856111404433	0.0	965.5805961200101	220.8017600054228	0.0	987.6079714653289	197.68731614664384	0.0	991.5948519189129	213.05511478794503	0.0	983.2471421868015	220.40642352846376	0.0
251	10.040000000000001	977.5630953535067	224.61076334099485	0.0	969.4839599247449	225.50721764121312	0.0	958.4687497916843	248.16176514017104	0.0	948.3840790875886	271.1481139915247	0.0	946.1789042075643	279.44949660068175	0.0	942.5698531362373	277.19140266724025	0.0	948.0596588444694	274.9355106394114	0.0	985.3449430658316	225.42667751139754	0.0	992.8218482368642	249.78415911729945	0.0	998.9782500217718	274.2015646192365	0.0	999.377881625292	283.6458309529135	0.0	1004.1305805788209	282.5008055312318	0.0	999.0817558112584	278.4799123518654	0.0	977.8303722240394	191.5585168980013	0.0	977.770681638866	175.4827434651978	0.0	977.6701256867761	184.19208254723952	0.0	966.7325778692382	196.59850825290485	0.0	960.9485806788309	209.0687051733603	0.0	965.732370814414	217.40546700080236	0.0	988.3912551112003	195.24989273245092	0.0	993.0816515817563	209.5321900415184	0.0	987.2597381090729	216.19795299801547	0.0
252	10.08	978.4755549199085	223.19709602617354	0.0	970.2226132505111	223.9039011913208	0.0	959.5054672787742	246.75054622543612	0.0	949.7110593295989	269.1262820797331	0.0	947.469656697529	277.6916266741015	0.0	943.826152947106	275.6448442875394	0.0	949.4036804224341	273.19420822854113	0.0	986.2168608822768	223.8547006675551	0.0	994.1753753371761	248.21736535305934	0.0	1000.496646694261	273.0373321625119	0.0	999.7483585325604	282.8096752076953	0.0	1004.949212903647	281.72553241683187	0.0	1001.0941552060315	277.1348390287593	0.0	978.312943683268	190.24932907405108	0.0	977.8082220670204	173.97131292717185	0.0	977.7851789136786	182.83783148703588	0.0	966.9888923434789	195.35111803475337	0.0	962.1053435302515	208.0939555269369	0.0	966.7251984617621	216.41930735412825	0.0	989.312204240372	194.5024818197739	0.0	994.0967419150202	208.7103446736806	0.0	988.9157315967831	215.33218425179476	0.0
